# xmcd
#
# Track frame offsets:
#	150
#	19982
#	38882
#	54400
#	75167
#	88052
#	90977
#	111505
#	133500
#	153580
#	164212
#	183787
#	201907
#	215572
#	233627
#	247902
#	268722
#	290432
#	298795
#	313240
#
# Disc length: 4395 seconds
#
# Revision: 6
# Processed by: cddbd v1.5.2PL0 Copyright (c) Steve Scherf et al.
# Submitted via: audiograbber 1.83.01
#
DISCID=1f112914
DTITLE=Silkk The Shocker - Made Man
DYEAR=1999
DGENRE=Rap
TTITLE0=The Day I Was Made
TTITLE1=Somebody Like Me
TTITLE2=It Ain't My Fault 2
TTITLE3=Ghetto Rain
TTITLE4=This Is 4 My
TTITLE5=Commercial One
TTITLE6=You Know What We Bout
TTITLE7=I Want To Be With You
TTITLE8=All Because Of You
TTITLE9=No Limit
TTITLE10=End Of The Road
TTITLE11=We Won't Stop
TTITLE12=Mr. '99
TTITLE13=It Takes More
TTITLE14=If It Don't Make $
TTITLE15=It's Going Around Outside
TTITLE16=Put It On Something
TTITLE17=Commercial Two
TTITLE18=SouthSide Niggas
TTITLE19=Get It Up
EXTD=_IceRipper_
EXTT0=
EXTT1=
EXTT2=
EXTT3=
EXTT4=
EXTT5=
EXTT6=
EXTT7=
EXTT8=
EXTT9=
EXTT10=
EXTT11=
EXTT12=
EXTT13=
EXTT14=
EXTT15=
EXTT16=
EXTT17=
EXTT18=
EXTT19=
PLAYORDER=
